<mxfile host="app.diagrams.net" modified="2021-05-28T03:33:54.352Z" agent="5.0 (Windows NT 10.0; Win64; x64) AppleWebKit/537.36 (KHTML, like Gecko) Chrome/90.0.4430.212 Safari/537.36" etag="-6IdmqYbbjAXiHZ9Vwfk" version="14.7.2" type="github">
  <diagram id="hnQ3IZtSptTGAWSBlT2M" name="Page-1">
    <mxGraphModel dx="1718" dy="967" grid="0" gridSize="10" guides="1" tooltips="1" connect="1" arrows="1" fold="1" page="1" pageScale="1" pageWidth="827" pageHeight="1169" math="0" shadow="0">
      <root>
        <mxCell id="0" />
        <mxCell id="1" parent="0" />
        <mxCell id="omxgHHif445E70FdTk_Y-1" value="&lt;font style=&quot;font-size: 24px&quot;&gt;CrossBar&lt;/font&gt;" style="rounded=0;whiteSpace=wrap;html=1;" vertex="1" parent="1">
          <mxGeometry x="120" y="260" width="476" height="120" as="geometry" />
        </mxCell>
        <mxCell id="omxgHHif445E70FdTk_Y-2" value="" style="shape=singleArrow;direction=south;whiteSpace=wrap;html=1;" vertex="1" parent="1">
          <mxGeometry x="200" y="380" width="40" height="70" as="geometry" />
        </mxCell>
        <mxCell id="omxgHHif445E70FdTk_Y-3" value="" style="shape=singleArrow;direction=south;whiteSpace=wrap;html=1;" vertex="1" parent="1">
          <mxGeometry x="338" y="190" width="40" height="70" as="geometry" />
        </mxCell>
        <mxCell id="omxgHHif445E70FdTk_Y-4" value="" style="shape=singleArrow;direction=south;whiteSpace=wrap;html=1;" vertex="1" parent="1">
          <mxGeometry x="480" y="380" width="40" height="70" as="geometry" />
        </mxCell>
        <mxCell id="omxgHHif445E70FdTk_Y-5" value="&lt;font style=&quot;font-size: 18px&quot;&gt;SRAM-LIKE INTERFACE&lt;/font&gt;" style="text;html=1;strokeColor=none;fillColor=none;align=center;verticalAlign=middle;whiteSpace=wrap;rounded=0;" vertex="1" parent="1">
          <mxGeometry x="292" y="140" width="132" height="50" as="geometry" />
        </mxCell>
        <mxCell id="omxgHHif445E70FdTk_Y-6" value="&lt;font style=&quot;font-size: 18px&quot;&gt;SRAM-LIKE INTERFACE&lt;br&gt;FOR MEM&lt;/font&gt;" style="text;html=1;strokeColor=none;fillColor=none;align=center;verticalAlign=middle;whiteSpace=wrap;rounded=0;" vertex="1" parent="1">
          <mxGeometry x="154" y="463" width="132" height="50" as="geometry" />
        </mxCell>
        <mxCell id="omxgHHif445E70FdTk_Y-7" value="&lt;font style=&quot;font-size: 18px&quot;&gt;SRAM-LIKE INTERFACE&lt;br&gt;FOR MMIO&lt;/font&gt;" style="text;html=1;strokeColor=none;fillColor=none;align=center;verticalAlign=middle;whiteSpace=wrap;rounded=0;" vertex="1" parent="1">
          <mxGeometry x="437" y="463" width="132" height="50" as="geometry" />
        </mxCell>
        <mxCell id="omxgHHif445E70FdTk_Y-8" value="&lt;font style=&quot;font-size: 24px&quot;&gt;clint&lt;/font&gt;" style="rounded=0;whiteSpace=wrap;html=1;" vertex="1" parent="1">
          <mxGeometry x="434" y="310" width="120" height="60" as="geometry" />
        </mxCell>
      </root>
    </mxGraphModel>
  </diagram>
</mxfile>
